<svg width="28" height="24" fill="none" xmlns="http://www.w3.org/2000/svg"><path d="M19.63 23.71h-3.75a.65.65 0 0 1-.45-.17.57.57 0 0 1-.18-.41v-5.84c0-.16.07-.3.18-.42a.65.65 0 0 1 .45-.17h3.74c.17 0 .33.06.45.17.11.11.18.26.18.42v5.84c0 .15-.07.3-.18.41a.65.65 0 0 1-.45.17Z" fill="#FFD764"/><path d="M25.25.34c-.66 0-1.3.24-1.77.68a2.2 2.2 0 0 0-.38 2.83l-4.09 3.83a2.56 2.56 0 0 0-2.52 0l-4.1-3.82a2.2 2.2 0 0 0-.37-2.84 2.6 2.6 0 0 0-1.77-.68c-.66 0-1.3.24-1.77.68a2.2 2.2 0 0 0-.38 2.83L4.01 7.69a2.6 2.6 0 0 0-2.65.06C.95 8 .63 8.37.44 8.8c-.19.43-.24.9-.14 1.35.1.46.33.87.68 1.2a2.66 2.66 0 0 0 2.72.5c.46-.17.85-.47 1.13-.85A2.2 2.2 0 0 0 4.9 8.5l4.09-3.83a2.56 2.56 0 0 0 2.52 0l4.1 3.83a2.2 2.2 0 0 0 .37 2.83c.47.44 1.1.69 1.77.69.66 0 1.3-.25 1.77-.69a2.2 2.2 0 0 0 .38-2.83l4.09-3.83a2.6 2.6 0 0 0 3.03-.35c.47-.44.73-1.03.73-1.65 0-.62-.26-1.22-.73-1.66a2.6 2.6 0 0 0-1.77-.68Z" fill="#4C4C4C"/><path d="M4.63 23.71H.88a.65.65 0 0 1-.45-.17.57.57 0 0 1-.18-.41v-5.84c0-.16.07-.3.18-.42a.65.65 0 0 1 .45-.17h3.75c.16 0 .32.06.44.17.11.11.18.26.18.42v5.84c0 .15-.07.3-.18.41a.65.65 0 0 1-.45.17Z" fill="#FFD764"/><path d="M12.13 23.71H8.37a.65.65 0 0 1-.44-.17.57.57 0 0 1-.18-.41V10.27c0-.15.07-.3.18-.41a.65.65 0 0 1 .45-.17h3.74c.17 0 .33.06.45.17.11.1.18.26.18.41v12.86c0 .15-.07.3-.18.41a.65.65 0 0 1-.45.17ZM27.13 23.71h-3.75a.65.65 0 0 1-.45-.17.57.57 0 0 1-.18-.41V11.44c0-.15.07-.3.18-.41a.65.65 0 0 1 .45-.17h3.75c.16 0 .32.06.44.17.11.1.18.26.18.41v11.69c0 .15-.07.3-.18.41a.65.65 0 0 1-.45.17Z" fill="#1FD6AA"/></svg>