<svg width="30" height="29" fill="none" xmlns="http://www.w3.org/2000/svg"><path d="m29.66 19.2-14.32-7.64a.72.72 0 0 0-.68 0L.34 19.2a.67.67 0 0 0-.2.16.62.62 0 0 0-.13.47.65.65 0 0 0 .34.47l14.31 7.66a.72.72 0 0 0 .68 0l14.32-7.65c.1-.06.19-.14.25-.24a.6.6 0 0 0 0-.64.66.66 0 0 0-.25-.23Z" fill="#2A4B55"/><path d="M29.66 13.47 15.34 5.82a.72.72 0 0 0-.68 0L.34 13.47c-.1.06-.19.14-.25.23a.6.6 0 0 0 0 .64c.06.1.15.18.25.24l14.32 7.65a.72.72 0 0 0 .68 0l14.32-7.65c.07-.04.14-.1.2-.17a.62.62 0 0 0 .13-.47.65.65 0 0 0-.34-.47Z" fill="#4D8B9D"/><path d="M29.66 7.73 15.34.08a.72.72 0 0 0-.68 0L.34 7.73c-.1.06-.19.14-.25.24a.6.6 0 0 0 0 .64c.06.1.15.17.25.23l14.32 7.65a.72.72 0 0 0 .68 0l14.32-7.65c.1-.06.19-.14.25-.23a.6.6 0 0 0 0-.64.66.66 0 0 0-.25-.24Z" fill="#8EBAC7"/></svg>