<svg width="31" height="29" fill="none" xmlns="http://www.w3.org/2000/svg"><path d="M7.56 26.17.63 17.73l1.95-2.34 5.22 3.9 15-18.7 1.96 1.55L9.53 26.03c-.21.33-.52.54-.86.6-.35.05-.7-.06-.97-.3l-.14-.16Z" fill="#78D478"/><path d="M29.97 7.6h-3.26a.6.6 0 0 1-.46-.23.86.86 0 0 1-.19-.55c0-.2.07-.4.2-.55a.6.6 0 0 1 .45-.23h3.26a.6.6 0 0 1 .46.23c.13.14.2.34.2.55 0 .2-.07.4-.2.55a.6.6 0 0 1-.46.23ZM29.97 14.61h-7.82a.6.6 0 0 1-.46-.23.86.86 0 0 1-.2-.55c0-.2.07-.4.2-.55a.6.6 0 0 1 .46-.23h7.82a.6.6 0 0 1 .46.23c.13.15.2.34.2.55 0 .2-.07.4-.2.55a.6.6 0 0 1-.46.23ZM29.97 21.62H17.58a.6.6 0 0 1-.46-.23.86.86 0 0 1-.2-.55c0-.2.08-.4.2-.55a.6.6 0 0 1 .46-.23h12.4a.6.6 0 0 1 .45.23c.13.15.2.35.2.55 0 .21-.07.4-.2.55a.6.6 0 0 1-.46.23ZM29.97 28.64H13.02a.6.6 0 0 1-.46-.23.86.86 0 0 1-.2-.55c0-.21.07-.4.2-.55a.6.6 0 0 1 .46-.23h16.95a.6.6 0 0 1 .46.23c.13.14.2.34.2.55 0 .2-.07.4-.2.55a.6.6 0 0 1-.46.23Z" fill="#AEAEAE"/></svg>