<svg width="30" height="28" fill="none" xmlns="http://www.w3.org/2000/svg"><path d="M6.25 7.55c1.73 0 3.13-1.6 3.13-3.6 0-1.98-1.4-3.59-3.13-3.59s-3.12 1.61-3.12 3.6c0 1.98 1.4 3.6 3.12 3.6Z" fill="#3D6C7B"/><path d="M14.17 16.27c-1.5-.61-2.4-1.9-3.36-3.27C9.5 11.12 8.01 9 5 9c-1.16 0-2.27.52-3.1 1.47a5.45 5.45 0 0 0-1.27 3.56v12.94c0 .2.06.38.18.51.12.14.27.21.44.21h7.5c.17 0 .32-.07.44-.2a.78.78 0 0 0 .19-.52V15.52a9.21 9.21 0 0 0 3.95 3.46c.32.12.66.1.95-.07.3-.17.52-.46.63-.82.11-.35.1-.74-.05-1.09-.13-.34-.39-.6-.7-.73Z" fill="#2A4B55"/><path d="M15.83 16.27c1.5-.61 2.4-1.9 3.36-3.27 1.31-1.88 2.8-4 5.81-4 1.16 0 2.27.52 3.1 1.47a5.45 5.45 0 0 1 1.27 3.56v12.94c0 .2-.06.38-.18.51a.59.59 0 0 1-.44.21h-7.5a.59.59 0 0 1-.44-.2.78.78 0 0 1-.18-.52V15.52a9.21 9.21 0 0 1-3.96 3.46c-.31.12-.66.1-.95-.05-.3-.17-.53-.45-.65-.81-.1-.36-.1-.75.04-1.1.14-.34.38-.6.7-.74l.02-.01Z" fill="#7ED3DD"/><path d="M23.75 7.55c1.73 0 3.13-1.6 3.13-3.6 0-1.98-1.4-3.59-3.13-3.59s-3.13 1.61-3.13 3.6c0 1.98 1.4 3.6 3.13 3.6Z" fill="#A0E6EE"/></svg>