<svg width="30" height="26" fill="none" xmlns="http://www.w3.org/2000/svg"><path d="M27.5.75h-25c-.5 0-.97.19-1.33.52A1.7 1.7 0 0 0 .63 2.5v1.17h28.75V2.5c0-.47-.2-.91-.55-1.24A1.94 1.94 0 0 0 27.5.75Z" fill="#E3E3E3"/><path d="M29.38 3.68H.63v7h28.75v-7Z" fill="#3AACE9"/><path d="M10 10.69v14.6h17.5c.5 0 .97-.18 1.33-.5.35-.33.55-.78.55-1.25V10.7H10Z" fill="#E3E3E3"/><path d="M.63 10.69v12.85c0 .47.2.92.54 1.24.36.33.83.52 1.33.52H10V10.69H.62Z" fill="#363636"/><path d="M5 8.93c1.04 0 1.88-.78 1.88-1.75S6.04 5.43 5 5.43s-1.88.78-1.88 1.75S3.96 8.93 5 8.93ZM26.25 7.77h-2.5a.65.65 0 0 1-.44-.18.57.57 0 0 1-.18-.4c0-.16.06-.31.18-.42a.65.65 0 0 1 .44-.17h2.5c.17 0 .32.06.44.17.12.1.18.26.18.41 0 .16-.06.3-.18.41a.65.65 0 0 1-.44.18ZM20.63 7.77H15a.65.65 0 0 1-.44-.18.57.57 0 0 1-.19-.4c0-.16.07-.31.19-.42A.65.65 0 0 1 15 6.6h5.63c.16 0 .32.06.44.17.11.1.18.26.18.41 0 .16-.07.3-.18.41a.65.65 0 0 1-.45.18Z" fill="#fff"/><path d="M18.07 20.04h-4.88a.71.71 0 0 1-.49-.19.62.62 0 0 1-.2-.45v-5.73a.6.6 0 0 1 .2-.46.7.7 0 0 1 .49-.18h4.88c.18 0 .35.07.48.19s.2.28.2.45v5.73c0 .17-.07.33-.2.45a.71.71 0 0 1-.48.19ZM26.25 14.2h-5a.65.65 0 0 1-.44-.18.57.57 0 0 1-.18-.41c0-.16.06-.3.18-.41a.65.65 0 0 1 .44-.17h5c.17 0 .32.06.44.17.12.1.18.25.18.41 0 .15-.06.3-.18.41a.65.65 0 0 1-.44.17ZM26.25 17.12h-5a.65.65 0 0 1-.44-.18.57.57 0 0 1-.18-.4c0-.16.06-.31.18-.42a.65.65 0 0 1 .44-.17h5c.17 0 .32.06.44.17.12.1.18.26.18.41 0 .16-.06.3-.18.41a.65.65 0 0 1-.44.18ZM26.25 20.04h-5a.65.65 0 0 1-.44-.17.57.57 0 0 1-.18-.42c0-.15.06-.3.18-.4a.65.65 0 0 1 .44-.18h5c.17 0 .32.06.44.17.12.11.18.26.18.41 0 .16-.06.3-.18.42a.65.65 0 0 1-.44.17ZM26.25 22.96H13.12a.65.65 0 0 1-.44-.17.57.57 0 0 1-.18-.41c0-.16.07-.3.18-.42.12-.1.28-.17.45-.17h13.12c.17 0 .32.06.44.17a.57.57 0 0 1 0 .83.65.65 0 0 1-.44.17Z" fill="#AEAEAE"/></svg>