<svg width="27" height="28" fill="none" xmlns="http://www.w3.org/2000/svg"><path d="M13.8.6C7.36.81 2.37 5.94 2.37 11.95v.76L.22 16.75a1.11 1.11 0 0 0 .17 1.29c.11.11.24.2.39.28l1.6.74v3.15c0 .77.32 1.52.91 2.06.59.55 1.38.86 2.21.86h4.38v2.34h12.5v-7.7A10.93 10.93 0 0 0 25.86 14c.5-2.22.28-4.52-.65-6.6a11.32 11.32 0 0 0-4.57-5.08A12.5 12.5 0 0 0 13.79.6Z" fill="#F7BF26"/><path d="m20.2 10.81-1.7-.12c-.11-.39-.28-.76-.5-1.1l1.13-1.22a.28.28 0 0 0-.02-.4l-.88-.83a.33.33 0 0 0-.43-.01l-1.3 1.05c-.37-.2-.77-.36-1.19-.46l-.12-1.6a.29.29 0 0 0-.1-.2.33.33 0 0 0-.21-.08h-1.26a.32.32 0 0 0-.2.08.29.29 0 0 0-.1.2l-.13 1.6c-.42.1-.82.25-1.19.46l-1.3-1.05a.33.33 0 0 0-.43.01l-.88.83a.28.28 0 0 0-.02.4l1.13 1.21c-.22.35-.39.72-.5 1.11l-1.71.12a.32.32 0 0 0-.2.1.28.28 0 0 0-.09.2v1.16c0 .08.03.15.08.2.06.06.13.09.21.1l1.72.11c.1.4.27.77.49 1.11l-1.13 1.22a.28.28 0 0 0-.07.2c0 .07.03.14.1.2l.87.82c.06.06.13.09.21.09.08 0 .16-.02.22-.07l1.3-1.06c.37.21.77.37 1.19.47l.12 1.6c0 .08.04.14.1.2.06.04.14.07.21.07h1.26c.07 0 .15-.03.2-.08.07-.05.1-.12.1-.19l.13-1.6c.42-.1.82-.26 1.19-.47l1.3 1.06a.33.33 0 0 0 .43-.02l.88-.82a.28.28 0 0 0 .02-.4L18 13.79c.22-.34.39-.72.5-1.1l1.71-.13c.08 0 .15-.03.2-.09a.28.28 0 0 0 .09-.2V11.1a.28.28 0 0 0-.08-.2.32.32 0 0 0-.21-.09Zm-5.95 2.63c-.37 0-.73-.1-1.04-.3-.31-.19-.55-.46-.7-.78a1.65 1.65 0 0 1-.1-1.01c.07-.34.25-.66.51-.9a2 2 0 0 1 2.04-.38c.35.13.64.36.85.64a1.67 1.67 0 0 1-.23 2.22c-.36.33-.83.51-1.33.51Z" fill="#A2703F"/></svg>