<svg width="23" height="23" fill="none" xmlns="http://www.w3.org/2000/svg"><g clip-path="url(#a)"><path d="M17.57 17.57h-2.55v-4c0-.95-.02-2.18-1.33-2.18-1.34 0-1.54 1.04-1.54 2.11v4.07H9.6V9.34h2.45v1.13h.03a2.7 2.7 0 0 1 2.43-1.33c2.58 0 3.06 1.7 3.06 3.92v4.51ZM6.71 8.22a1.48 1.48 0 1 1 0-2.97 1.48 1.48 0 0 1 0 2.97ZM8 17.57H5.43V9.34h2.56v8.23Zm10.86-14.7H4.15c-.7 0-1.28.56-1.28 1.25v14.76c0 .69.57 1.25 1.28 1.25h14.7c.7 0 1.27-.56 1.27-1.25V4.12c0-.69-.57-1.25-1.27-1.25Z" fill="#fff"/></g><defs><clipPath id="a"><path fill="#fff" d="M0 0h23v23H0z"/></clipPath></defs></svg>