<svg width="23" height="23" fill="none" xmlns="http://www.w3.org/2000/svg"><g clip-path="url(#a)"><path d="M12.81 2A9.59 9.59 0 0 0 7.67 20.3c-.06-.74 0-1.48.15-2.2.18-.8 1.25-5.23 1.25-5.23-.22-.48-.32-1-.31-1.52 0-1.42.82-2.48 1.84-2.48a1.28 1.28 0 0 1 1.29 1.44c0 .87-.56 2.17-.85 3.4a1.48 1.48 0 0 0 1.51 1.84c1.82 0 3.04-2.33 3.04-5.08 0-2.1-1.4-3.69-3.97-3.69a4.55 4.55 0 0 0-4.73 4.6c-.02.68.2 1.35.63 1.88a.46.46 0 0 1 .15.53 35.68 35.68 0 0 1-.26.9.34.34 0 0 1-.43.1c-1.32-.53-1.95-2-1.95-3.66 0-2.73 2.29-6 6.86-6 3.63 0 6.05 2.67 6.05 5.52 0 3.74-2.08 6.56-5.17 6.56a2.74 2.74 0 0 1-2.35-1.2l-.66 2.64a7.7 7.7 0 0 1-.98 2.05A9.57 9.57 0 1 0 12.81 2Z" fill="#fff"/></g><defs><clipPath id="a"><path fill="#fff" d="M0 0h23v23H0z"/></clipPath></defs></svg>