<svg width="23" height="22" fill="none" xmlns="http://www.w3.org/2000/svg"><path d="M23 2.55c-.86.44-1.78.73-2.71.86a5.38 5.38 0 0 0 2.07-3 8.72 8.72 0 0 1-3 1.31A4.57 4.57 0 0 0 16.7.07c-1.03-.2-2.08 0-3 .57a5.2 5.2 0 0 0-2.07 2.55 6.18 6.18 0 0 0-.3 3.48c-1.87-.1-3.7-.67-5.38-1.65A13.94 13.94 0 0 1 1.6 1a6.04 6.04 0 0 0-.64 2.73c0 1.88.84 3.54 2.1 4.52a4.25 4.25 0 0 1-2.14-.68v.06c0 1.26.38 2.47 1.07 3.44a4.66 4.66 0 0 0 2.72 1.89c-.7.21-1.43.24-2.13.09.3 1.08.89 2.02 1.68 2.7a4.34 4.34 0 0 0 2.73 1.07 9.08 9.08 0 0 1-3.3 1.92c-1.2.39-2.45.5-3.69.33a12.12 12.12 0 0 0 7.23 2.44c8.68 0 13.43-8.27 13.43-15.45l-.01-.7A10.5 10.5 0 0 0 23 2.56Z" fill="#fff"/></svg>